HIERARCHY
ROOT Hips
{
  OFFSET 5.72205e-005 65.662 3.42586
  CHANNELS 6 Xposition Yposition Zposition Zrotation Xrotation Yrotation
  JOINT Chest
  {
    OFFSET 0 8.7983 -4.7612
    CHANNELS 3 Zrotation Xrotation Yrotation
    JOINT Chest2
    {
      OFFSET 0 8.0291 0.4195
      CHANNELS 3 Zrotation Xrotation Yrotation
      JOINT Chest3
      {
        OFFSET 0 9.9351 -2.2114
        CHANNELS 3 Zrotation Xrotation Yrotation
        JOINT Neck
        {
          OFFSET 0 22.3885 -0.4656
          CHANNELS 3 Zrotation Xrotation Yrotation
          JOINT Head
          {
            OFFSET -0.0001 12.643 3.4389
            CHANNELS 3 Zrotation Xrotation Yrotation
            End Site
            {
              OFFSET 0.0001 17.6655 0.5274
            }
          }
        }
        JOINT LeftCollar
        {
          OFFSET 2.2603 21.606 7.4023
          CHANNELS 3 Zrotation Xrotation Yrotation
          JOINT LeftShoulder
          {
            OFFSET 13.5163 -1.1332 -5.0146
            CHANNELS 3 Zrotation Xrotation Yrotation
            JOINT LeftElbow
            {
              OFFSET -0.0995 -28.05 -0.2431
              CHANNELS 3 Zrotation Xrotation Yrotation
              JOINT LeftWrist
              {
                OFFSET 0.0679 -23.3996 -0.1402
                CHANNELS 3 Zrotation Xrotation Yrotation
                JOINT LeftFinger1
                {
                  OFFSET 0.7932 -9.069 2.5189
                  CHANNELS 3 Zrotation Xrotation Yrotation
                  JOINT LeftFinger11
                  {
                    OFFSET -0.8272 -3.3923 0.5977
                    CHANNELS 3 Zrotation Xrotation Yrotation
                    JOINT LeftFinger12
                    {
                      OFFSET -0.5649 -2.3158 0.4082
                      CHANNELS 3 Zrotation Xrotation Yrotation
                      End Site
                      {
                        OFFSET -0.4919 -1.6479 0.2673
                      }
                    }
                  }
                }
                JOINT LeftFinger2
                {
                  OFFSET 0.9159 -9.2044 0.2193
                  CHANNELS 3 Zrotation Xrotation Yrotation
                  JOINT LeftFinger21
                  {
                    OFFSET 0.0117 -4.1944 -0.0248
                    CHANNELS 3 Zrotation Xrotation Yrotation
                    JOINT LeftFinger22
                    {
                      OFFSET 0.0071 -2.3249 -0.0142
                      CHANNELS 3 Zrotation Xrotation Yrotation
                      End Site
                      {
                        OFFSET -0.1475 -2.0882 0.0028
                      }
                    }
                  }
                }
                JOINT LeftFinger3
                {
                  OFFSET 0.6113 -8.7231 -2.0637
                  CHANNELS 3 Zrotation Xrotation Yrotation
                  JOINT LeftFinger31
                  {
                    OFFSET -0.1927 -3.8059 -0.2383
                    CHANNELS 3 Zrotation Xrotation Yrotation
                    JOINT LeftFinger32
                    {
                      OFFSET -0.1091 -2.1688 -0.1362
                      CHANNELS 3 Zrotation Xrotation Yrotation
                      End Site
                      {
                        OFFSET -0.2358 -1.9176 -0.0906
                      }
                    }
                  }
                }
                JOINT LeftFinger4
                {
                  OFFSET -0.6151 -8.0947 -3.5641
                  CHANNELS 3 Zrotation Xrotation Yrotation
                  JOINT LeftFinger41
                  {
                    OFFSET -0.4882 -2.341 -0.6462
                    CHANNELS 3 Zrotation Xrotation Yrotation
                    JOINT LeftFinger42
                    {
                      OFFSET -0.3575 -1.7167 -0.4742
                      CHANNELS 3 Zrotation Xrotation Yrotation
                      End Site
                      {
                        OFFSET -0.4187 -1.5237 -0.3496
                      }
                    }
                  }
                }
                JOINT LeftFinger0
                {
                  OFFSET -1.42 -1.8761 1.4223
                  CHANNELS 3 Zrotation Xrotation Yrotation
                  JOINT LeftFinger01
                  {
                    OFFSET -1.1471 -3.4929 2.6334
                    CHANNELS 3 Zrotation Xrotation Yrotation
                    JOINT LeftFinger02
                    {
                      OFFSET -0.823 -2.3 1.6571
                      CHANNELS 3 Zrotation Xrotation Yrotation
                      End Site
                      {
                        OFFSET -0.5822 -1.6914 1.1582
                      }
                    }
                  }
                }
              }
            }
          }
        }
        JOINT RightCollar
        {
          OFFSET -2.2603 21.606 7.4023
          CHANNELS 3 Zrotation Xrotation Yrotation
          JOINT RightShoulder
          {
            OFFSET -13.5187 -1.1334 -5.0155
            CHANNELS 3 Zrotation Xrotation Yrotation
            JOINT RightElbow
            {
              OFFSET 0.0994 -28.0499 -0.2431
              CHANNELS 3 Zrotation Xrotation Yrotation
              JOINT RightWrist
              {
                OFFSET -0.0679 -23.3996 -0.1402
                CHANNELS 3 Zrotation Xrotation Yrotation
                JOINT RightFinger1
                {
                  OFFSET -0.7932 -9.0691 2.5189
                  CHANNELS 3 Zrotation Xrotation Yrotation
                  JOINT RightFinger11
                  {
                    OFFSET 0.8272 -3.3923 0.5977
                    CHANNELS 3 Zrotation Xrotation Yrotation
                    JOINT RightFinger12
                    {
                      OFFSET 0.565 -2.3158 0.4082
                      CHANNELS 3 Zrotation Xrotation Yrotation
                      End Site
                      {
                        OFFSET 0.4919 -1.6479 0.2673
                      }
                    }
                  }
                }
                JOINT RightFinger2
                {
                  OFFSET -0.916 -9.2044 0.2193
                  CHANNELS 3 Zrotation Xrotation Yrotation
                  JOINT RightFinger21
                  {
                    OFFSET -0.0117 -4.1944 -0.0248
                    CHANNELS 3 Zrotation Xrotation Yrotation
                    JOINT RightFinger22
                    {
                      OFFSET -0.0071 -2.3249 -0.0142
                      CHANNELS 3 Zrotation Xrotation Yrotation
                      End Site
                      {
                        OFFSET 0.1475 -2.0882 0.0028
                      }
                    }
                  }
                }
                JOINT RightFinger3
                {
                  OFFSET -0.6113 -8.7231 -2.0637
                  CHANNELS 3 Zrotation Xrotation Yrotation
                  JOINT RightFinger31
                  {
                    OFFSET 0.1927 -3.8059 -0.2383
                    CHANNELS 3 Zrotation Xrotation Yrotation
                    JOINT RightFinger32
                    {
                      OFFSET 0.1091 -2.1688 -0.1362
                      CHANNELS 3 Zrotation Xrotation Yrotation
                      End Site
                      {
                        OFFSET 0.2358 -1.9176 -0.0906
                      }
                    }
                  }
                }
                JOINT RightFinger4
                {
                  OFFSET 0.6151 -8.0947 -3.564
                  CHANNELS 3 Zrotation Xrotation Yrotation
                  JOINT RightFinger41
                  {
                    OFFSET 0.4882 -2.341 -0.6462
                    CHANNELS 3 Zrotation Xrotation Yrotation
                    JOINT RightFinger42
                    {
                      OFFSET 0.3574 -1.7166 -0.4742
                      CHANNELS 3 Zrotation Xrotation Yrotation
                      End Site
                      {
                        OFFSET 0.4187 -1.5237 -0.3496
                      }
                    }
                  }
                }
                JOINT RightFinger0
                {
                  OFFSET 1.4199 -1.8761 1.4221
                  CHANNELS 3 Zrotation Xrotation Yrotation
                  JOINT RightFinger01
                  {
                    OFFSET 1.1472 -3.4929 2.6336
                    CHANNELS 3 Zrotation Xrotation Yrotation
                    JOINT RightFinger02
                    {
                      OFFSET 0.8229 -2.3 1.6571
                      CHANNELS 3 Zrotation Xrotation Yrotation
                      End Site
                      {
                        OFFSET 0.5822 -1.6914 1.1582
                      }
                    }
                  }
                }
              }
            }
          }
        }
      }
    }
  }
  JOINT RightHip
  {
    OFFSET -9.412 3.9771 -0.7758
    CHANNELS 3 Zrotation Xrotation Yrotation
    JOINT RightKnee
    {
      OFFSET -0.7531 -40.938 0
      CHANNELS 3 Zrotation Xrotation Yrotation
      JOINT RightAnkle
      {
        OFFSET 0 -40.1986 0
        CHANNELS 3 Zrotation Xrotation Yrotation
        JOINT RightToe
        {
          OFFSET 0 -4.4182 9.239
          CHANNELS 3 Zrotation Xrotation Yrotation
          End Site
          {
            OFFSET 0 0 6.1981
          }
        }
      }
    }
  }
  JOINT LeftHip
  {
    OFFSET 9.4119 3.9773 -0.7758
    CHANNELS 3 Zrotation Xrotation Yrotation
    JOINT LeftKnee
    {
      OFFSET 0.7532 -40.9383 0
      CHANNELS 3 Zrotation Xrotation Yrotation
      JOINT LeftAnkle
      {
        OFFSET 0 -40.1986 0
        CHANNELS 3 Zrotation Xrotation Yrotation
        JOINT LeftToe
        {
          OFFSET 0 -4.4182 9.239
          CHANNELS 3 Zrotation Xrotation Yrotation
          End Site
          {
            OFFSET 0 0 6.1981
          }
        }
      }
    }
  }
}
MOTION
Frames:	4
Frame Time:	0.0333333
5.72205e-005 65.662 3.42586 0 0 -0 0 0 -0 0 0 -0 0 0 -0 0 0 -0 0 0 -0 0 0 -12.5014 88.1196 14.2451 10.6914 -0.00160068 -0.00239207 0.000740045 -8.4365e-005 7.00714e-005 -9.52055e-007 9.93923e-017 -1.98785e-016 -1.59028e-015 9.93923e-017 -5.96354e-016 -1.59028e-015 -9.93923e-017 -5.96354e-016 -1.59028e-015 9.93923e-017 -1.98785e-016 -1.59028e-015 -0.0128176 0.00232552 8.52707e-005 9.93923e-017 5.96354e-016 -0 9.93923e-017 -1.98785e-016 -1.59028e-015 -0.0160551 0.00299681 0.000857156 -2.48481e-016 0 3.18055e-015 9.93923e-017 -1.98785e-016 -1.59028e-015 -0.0125865 0.0031206 0.00282719 0 1.98785e-016 -0 9.93923e-017 -1.98785e-016 -1.59028e-015 9.93923e-017 -5.96354e-016 -1.59028e-015 -9.93923e-017 -5.96354e-016 -1.59028e-015 -0.865644 0.16582 7.03859 -88.0329 10.2057 -10.5567 0.0015593 -0.00248883 -0.000788628 7.87605e-005 4.10553e-005 1.24965e-005 -3.97569e-016 -7.95139e-016 3.18055e-015 -1.98785e-016 -3.97569e-016 3.18055e-015 -1.98785e-016 0 3.18055e-015 -3.97569e-016 -7.95139e-016 3.18055e-015 0.0129473 0.00231697 -8.70038e-005 9.93923e-017 -7.95139e-016 1.59028e-015 -3.97569e-016 -7.95139e-016 3.18055e-015 0.0163314 0.00303369 -0.000872333 3.97569e-016 7.95139e-016 -3.18055e-015 -3.97569e-016 -7.95139e-016 3.18055e-015 0.0145763 0.00367772 -0.00326275 9.93923e-017 -3.97569e-016 -0 -3.97569e-016 -7.95139e-016 3.18055e-015 -1.98785e-016 -3.97569e-016 3.18055e-015 -1.98785e-016 0 3.18055e-015 3.42482 1.32465 -0.0626183 0.000117508 0.717283 0.000978199 -3.4257 -2.04197 -0.0604716 6.47761e-025 0 -0 -3.42483 1.34017 0.0627307 -0.000193936 0.682302 -0.0013703 3.42574 -2.02253 0.0595886 -8.45714e-024 0 -7.40531e-025 
1.63365 40.2886 -5.00571 1.66248e-007 41.9988 -1.29795e-007 0.254224 -1.97583 -0.249968 0.500259 -3.95274 -0.491593 0.500259 -3.95273 -0.491593 5.56859e-006 -0.0822271 -5.44139e-006 -0.176604 0.38992 0.000599208 -33.3726 16.0515 -49.1225 48.7154 29.5179 23.7017 -30.0014 -37.8766 -14.2303 42.5022 -40.172 40.3613 7.95139e-016 -1.27222e-014 -1.98785e-015 2.20695e-031 -6.36111e-015 1.98785e-015 7.95139e-016 -3.18055e-015 2.38542e-015 7.95139e-016 -1.27222e-014 -1.98785e-015 -0.0128162 0.00232214 8.90905e-005 2.38542e-015 6.36111e-015 1.59028e-015 7.95139e-016 -1.27222e-014 -1.98785e-015 -0.0160295 0.0029968 0.000851315 -3.18055e-015 -9.54166e-015 7.95139e-016 7.95139e-016 -1.27222e-014 -1.98785e-015 -0.0125709 0.00312406 0.0028213 -4.49638e-006 1.37504e-006 5.41247e-006 7.95139e-016 -1.27222e-014 -1.98785e-015 2.20695e-031 -6.36111e-015 1.98785e-015 7.95139e-016 -3.18055e-015 2.38542e-015 28.6945 13.9283 43.5991 -50.4618 26.7258 -19.6305 28.201 -36.9095 12.9848 -36.112 -41.554 -39.7596 7.95139e-016 -3.18055e-015 7.95139e-016 1.59028e-015 0 -7.95139e-016 7.95139e-016 0 7.95139e-016 7.95139e-016 -3.18055e-015 7.95139e-016 0.0129463 0.00232958 -8.49902e-005 1.59028e-015 -6.36111e-015 7.95139e-016 7.95139e-016 -3.18055e-015 7.95139e-016 0.0163583 0.00303499 -0.00087813 0 0 -2.38542e-015 7.95139e-016 -3.18055e-015 7.95139e-016 0.0145619 0.00368018 -0.00325792 -2.20695e-031 3.18055e-015 3.97569e-015 7.95139e-016 -3.18055e-015 7.95139e-016 1.59028e-015 0 -7.95139e-016 7.95139e-016 0 7.95139e-016 -60.817 -30.8388 -24.095 -176.411 79.278 175.14 55.4387 32.6644 -57.1123 -9.80496e-007 -1.01815e-006 -1.39766e-006 60.7965 -30.8517 24.0667 176.555 79.2802 -175.277 -55.4601 32.6663 57.11 1.96006e-006 -1.94632e-006 2.79599e-006 
1.63365 40.209 -4.44391 1.59668e-007 41.0023 -1.1742e-007 0.253304 -1.93171 -0.252163 0.498518 -3.86457 -0.496194 0.498519 -3.86458 -0.496196 -1.79239e-005 -0.0482857 1.79235e-005 -0.346734 0.775339 0.0468481 -34.0201 16.7483 -48.4408 49.0185 29.5082 23.5787 -29.3395 -37.4171 -13.8172 42.4012 -40.6181 40.5617 -1.59028e-015 3.18055e-015 -3.18055e-015 -1.59028e-015 -3.18055e-015 7.95139e-016 -1.59028e-015 -6.36111e-015 3.97569e-016 -1.59028e-015 3.18055e-015 -3.18055e-015 -0.0127991 0.00231657 8.85704e-005 1.59028e-015 6.36111e-015 -1.19271e-015 -1.59028e-015 3.18055e-015 -3.18055e-015 -0.0160414 0.0029968 0.00085213 7.95139e-016 6.36111e-015 7.95139e-016 -1.59028e-015 3.18055e-015 -3.18055e-015 -0.0125666 0.00311631 0.00282289 -7.95139e-016 3.18055e-015 -3.97569e-016 -1.59028e-015 3.18055e-015 -3.18055e-015 -1.59028e-015 -3.18055e-015 7.95139e-016 -1.59028e-015 -6.36111e-015 3.97569e-016 29.3114 14.6611 42.9428 -50.8141 26.6929 -19.5079 27.5707 -36.4406 12.5988 -35.9704 -42.0173 -39.8968 7.95139e-016 6.36111e-015 7.95139e-016 7.95139e-016 -3.18055e-015 1.59028e-015 -7.95139e-016 9.54166e-015 -1.59028e-015 7.95139e-016 6.36111e-015 7.95139e-016 0.012977 0.00232245 -9.67189e-005 -1.59028e-015 9.54166e-015 -3.18055e-015 7.95139e-016 6.36111e-015 7.95139e-016 0.0163583 0.00304827 -0.000872209 2.29273e-006 1.52342e-007 -2.51504e-006 7.95139e-016 6.36111e-015 7.95139e-016 0.0145627 0.00366838 -0.0032595 -2.18984e-006 1.32441e-005 4.34718e-006 7.95139e-016 6.36111e-015 7.95139e-016 7.95139e-016 -3.18055e-015 1.59028e-015 -7.95139e-016 9.54166e-015 -1.59028e-015 -60.6197 -29.4005 -23.8173 -176.438 79.9082 175.165 54.5219 33.0884 -56.6492 -2.12829e-006 -4.54677e-006 3.63496e-006 60.5993 -29.4133 23.7896 176.588 79.9104 -175.309 -54.5441 33.0894 56.6479 1.68967e-015 -9.54166e-015 -2.48481e-015 
1.63366 40.1312 -3.88082 8.71277e-008 40.0045 -4.97887e-008 0.252353 -1.88752 -0.254345 0.49672 -3.77609 -0.500773 0.496721 -3.77611 -0.500774 -1.42495e-005 -0.0145403 1.4376e-005 -0.517363 1.161 0.0942949 -34.6795 17.4383 -47.7476 49.3218 29.4974 23.4558 -28.6852 -36.9532 -13.4128 42.3015 -41.0647 40.7625 -3.0244e-006 -2.07979e-006 -4.55851e-006 7.95139e-016 0 -2.38542e-015 -7.95139e-016 3.18055e-015 -3.97569e-016 -3.0244e-006 -2.07979e-006 -4.55851e-006 -0.012808 0.0023366 8.356e-005 1.59028e-015 -6.36111e-015 3.97569e-016 -3.0244e-006 -2.07979e-006 -4.55851e-006 -0.0160465 0.0030001 0.000857527 -7.95139e-016 0 -3.97569e-016 -3.0244e-006 -2.07979e-006 -4.55851e-006 -0.012605 0.00313739 0.00283416 -1.59028e-015 6.36111e-015 -2.78299e-015 -3.0244e-006 -2.07979e-006 -4.55851e-006 7.95139e-016 0 -2.38542e-015 -7.95139e-016 3.18055e-015 -3.97569e-016 29.94 15.3878 42.2753 -51.1662 26.6596 -19.3855 26.948 -35.9684 12.2215 -35.8293 -42.481 -40.0335 -2.38542e-015 6.36111e-015 -7.95139e-016 4.41391e-032 3.18055e-015 -7.95139e-016 -7.95139e-016 3.18055e-015 -0 -2.38542e-015 6.36111e-015 -7.95139e-016 0.0129487 0.00232917 -9.12791e-005 2.38542e-015 3.18055e-015 -7.95139e-016 -2.38542e-015 6.36111e-015 -7.95139e-016 0.0163503 0.00304176 -0.000873081 -0 -3.18055e-015 -0 -2.38542e-015 6.36111e-015 -7.95139e-016 0.014531 0.00366556 -0.00325623 -7.95139e-016 3.18055e-015 -7.95139e-016 -2.38542e-015 6.36111e-015 -7.95139e-016 4.41391e-032 3.18055e-015 -7.95139e-016 -7.95139e-016 3.18055e-015 -0 -60.431 -27.9581 -23.5485 -176.468 80.5382 175.195 53.5947 33.5039 -56.1736 3.22848e-007 3.27332e-006 -3.01089e-007 60.4101 -27.9716 23.5211 176.626 80.5402 -175.347 -53.6178 33.5041 56.1735 9.74794e-007 -7.0173e-008 1.40162e-006 
